<svg width="24" height="24" viewBox="0 0 24 24" fill="none" xmlns="http://www.w3.org/2000/svg">
<path d="M18.3125 6.03125C16.5 4.5 13.7188 4.71875 12 6.5C10.25 4.71875 7.46875 4.5 5.65625 6.03125C3.3125 8 3.65625 11.2188 5.34375 12.9375L10.8125 18.5312C11.125 18.8438 11.5312 19.0312 12 19.0312C12.4375 19.0312 12.8438 18.8438 13.1562 18.5312L18.6562 12.9375C20.3125 11.2188 20.6562 8 18.3125 6.03125ZM17.5625 11.875L12.0938 17.4688C12.0312 17.5312 11.9688 17.5312 11.875 17.4688L6.40625 11.875C5.25 10.7188 5.03125 8.53125 6.625 7.1875C7.84375 6.15625 9.71875 6.3125 10.9062 7.5L12 8.625L13.0938 7.5C14.25 6.3125 16.125 6.15625 17.3438 7.15625C18.9375 8.53125 18.7188 10.7188 17.5625 11.875Z" fill="#333333"/>
</svg>
