<svg width="24" height="24" viewBox="0 0 24 24" fill="none" xmlns="http://www.w3.org/2000/svg">
<path d="M8.5 7C7.65625 7 7 7.6875 7 8.5C7 9.34375 7.65625 10 8.5 10C9.3125 10 10 9.34375 10 8.5C10 7.6875 9.3125 7 8.5 7ZM14.5 7C13.6562 7 13 7.6875 13 8.5C13 9.34375 13.6562 10 14.5 10C15.3125 10 16 9.34375 16 8.5C16 7.6875 15.3125 7 14.5 7ZM20.1875 11.5C20.0312 11.5312 19.8438 11.5938 19.7188 11.6562L17 13.5C16.9688 13.1875 16.8438 12.6875 16.6562 12.4375C18.0312 11.6562 19 10.1875 19 8.5C19 6.03125 16.9688 4 14.5 4C13.375 4 12.3125 4.4375 11.5 5.1875C10.6562 4.4375 9.59375 4 8.5 4C6 4 4 6.03125 4 8.5C4 9.65625 4.4375 10.7188 5.15625 11.5H4C3.4375 11.5 3 11.9688 3 12.5V14.5C3 15.0625 3.4375 15.5 4 15.5H5.5V18C5.5 19.125 6.375 20 7.5 20H15C16.0938 20 17 19.125 17 18V18.0312L19.7188 19.875C19.8438 19.9375 20.0312 20 20.1875 20C20.5938 20 21 19.6875 21 19.2188V12.3125C21 11.8438 20.5938 11.5 20.1875 11.5ZM15.5 18C15.5 18.2812 15.25 18.5 15 18.5H7.5C7.21875 18.5 7 18.2812 7 18V14H4.5V13H15C15.25 13 15.5 13.25 15.5 13.5V18ZM14.5 11.5H8.5C6.84375 11.5 5.5 10.1562 5.5 8.5C5.5 6.875 6.84375 5.5 8.5 5.5C9.21875 5.5 9.90625 5.78125 10.4688 6.28125L11.5 7.1875L12.5 6.28125C13.0625 5.78125 13.75 5.5 14.5 5.5C16.125 5.5 17.5 6.875 17.5 8.5C17.5 10.1562 16.125 11.5 14.5 11.5ZM19.5 17.9062L17 16.2188V15.2812L19.5 13.625V17.9062Z" fill="black"/>
</svg>
