<svg width="24" height="24" viewBox="0 0 24 24" fill="none" xmlns="http://www.w3.org/2000/svg">
<path d="M17 4C15.7812 4 14.375 5.09375 14.0625 9.90625C13.7812 9.0625 12.875 8.21875 12.0312 8.03125L9.59375 7.46875C9.40625 7.4375 9.125 7.40625 8.96875 7.40625C8.4375 7.40625 7.6875 7.65625 7.28125 8L5.78125 9.15625C5.625 9.28125 5.5 9.53125 5.5 9.75C5.5 10.1562 5.8125 10.5 6.25 10.5C6.375 10.5 6.59375 10.4375 6.6875 10.3438L8.21875 9.1875C8.40625 9.03125 8.75 8.90625 8.96875 8.90625C9.0625 8.90625 9.1875 8.9375 9.25 8.9375L9.71875 9.0625L8.625 11.7812C8.53125 11.9375 8.46875 12.25 8.46875 12.4375C8.46875 12.9688 8.875 13.6562 9.34375 13.9375L11.9375 15.5C12 15.5625 12.0625 15.6562 12.0625 15.7188C12.0625 15.75 12.0625 15.7812 12.0625 15.7812L11.0312 19.0625C11 19.125 11 19.2188 11 19.2812C11 19.5938 11.2188 19.9062 11.5312 20C11.5938 20 11.6875 20 11.75 20C12.0625 20 12.375 19.7812 12.4688 19.4688L13.5 16.2188C13.5312 16.0625 13.5625 15.875 13.5625 15.7188C13.5625 15.1875 13.1875 14.5 12.7188 14.2188L11.0938 13.25L12.4062 9.96875C12.5 10.0625 12.5625 10.25 12.625 10.3438L13.0625 11.7812C13.2812 12.5312 13.9375 13 14.7188 13H16.2188H16.25C16.6562 13 16.9688 12.6875 17 12.2812C17 11.8438 16.6562 11.5312 16.25 11.5312H15.5C15.5625 8.15625 16.1875 5.5 17 5.5C17.8125 5.5 18.5 8.4375 18.5 12C18.5 15.5938 17.8125 18.5 17 18.5C16.3125 18.5 15.75 16.625 15.5625 14H14.0312C14.25 17.0938 14.9375 20 17 20C18.3438 20 20 18.625 20 12C20 8.375 19.4688 4 17 4ZM12.5 7C13.3125 7 14 6.34375 14 5.5C14 4.6875 13.3125 4 12.5 4C11.6562 4 11 4.6875 11 5.5C11 6.34375 11.6562 7 12.5 7ZM7.9375 13.9062L7.3125 15.375C7.28125 15.4375 7.15625 15.5 7.0625 15.5H4.75C4.3125 15.5 4 15.8438 4 16.25C4 16.6875 4.3125 17 4.75 17H7.0625H7.09375C7.71875 17 8.4375 16.5312 8.6875 15.9688L9.125 14.9688L8.8125 14.7812C8.5 14.5938 8.125 14.2188 7.9375 13.9062Z" fill="#363636"/>
</svg>
