<svg width="24" height="24" viewBox="0 0 24 24" fill="none" xmlns="http://www.w3.org/2000/svg">
<path d="M10.2188 10C9.75 10 9.25 10.1562 8.8125 10.5312C7.625 11.5 7.8125 13.125 8.65625 13.9688L11.375 16.7812C11.7812 17.1875 12.3438 17 12.5625 16.7812L15.3125 13.9688C16.1562 13.125 16.3125 11.5 15.1562 10.5312C14.7188 10.1562 14.2188 10 13.75 10C13.0625 10 12.375 10.3125 11.9688 10.75C11.5625 10.3125 10.9062 10 10.2188 10ZM14.1875 11.6562C14.75 12.1562 14.375 12.8125 14.25 12.9375L11.9688 15.2188L9.71875 12.9375C9.59375 12.8125 9.21875 12.1562 9.78125 11.6562C10.2188 11.3125 10.75 11.625 10.9062 11.7812L11.9688 12.875L13.0625 11.7812C13.1875 11.625 13.75 11.3125 14.1875 11.6562ZM20.9062 11L18.9688 9.375V6.25C18.9688 6.125 18.875 6 18.7188 6H17.7188C17.5938 6 17.4688 6.125 17.4688 6.25V8.15625L12.7812 4.3125C12.3125 3.90625 11.6562 3.90625 11.1875 4.3125L3.0625 11.0312C2.96875 11.125 2.96875 11.2812 3.03125 11.375L3.6875 12.1562C3.75 12.25 3.90625 12.2812 4.03125 12.1875L4.96875 11.3125V19.5C4.96875 19.7812 5.21875 20 5.46875 20H18.5C18.75 20 19 19.7812 19 19.5V11.3125L19.9375 12.1875C20.0625 12.25 20.2188 12.25 20.3125 12.125L20.9375 11.375C21.0312 11.25 21 11.0938 20.9062 11ZM17.4688 18.5H6.46875V10.0938L11.8125 5.71875C11.9062 5.65625 12.0312 5.65625 12.125 5.71875L17.4688 10.0938V18.5Z" fill="#333333"/>
</svg>
