<svg width="24" height="24" viewBox="0 0 24 24" fill="none" xmlns="http://www.w3.org/2000/svg">
<path d="M12 8C10.5938 8 9.5 9.125 9.5 10.5C9.5 11.9062 10.5938 13 12 13C13.375 13 14.5 11.9062 14.5 10.5C14.4688 9.125 13.375 8.03125 12 8ZM12 11.5C11.4375 11.5 11 11.0625 11 10.5C11 9.96875 11.4375 9.5 12 9.5C12.5312 9.5 13 9.96875 13 10.5C13 11.0625 12.5312 11.5 12 11.5ZM20.8125 14.75L19 12V6.5C19 5.6875 18.3125 5 17.5 5H6.5C5.65625 5 5 5.6875 5 6.5V12L3.15625 14.75C3.0625 14.9062 3 15.1562 3 15.3125V18C3 18.5625 3.4375 19 4 19H20C20.5312 19 21 18.5625 21 18V15.3125C21 15.1562 20.9062 14.9062 20.8125 14.75ZM6.5 12.4688V6.5H17.5V12.4688L18.8438 14.5H5.125L6.5 12.4688ZM19.5 17.5H4.5V16H19.5V17.5ZM16.25 7.5H15.25C15.0938 7.5 15 7.625 15 7.75V8.75C15 8.90625 15.0938 9 15.25 9H16.25C16.375 9 16.5 8.90625 16.5 8.75V7.75C16.5 7.625 16.375 7.5 16.25 7.5Z" fill="#333333"/>
</svg>
