<svg width="24" height="24" viewBox="0 0 24 24" fill="none" xmlns="http://www.w3.org/2000/svg">
<path d="M15.5312 6.5H8.53125V10H15.5312V6.5ZM16.5312 4H7.53125C6.6875 4 6.03125 4.6875 6.03125 5.5V18.5C6.03125 19.3438 6.6875 20 7.53125 20H16.5312C17.3438 20 18.0312 19.3438 18.0312 18.5V5.5C18.0312 4.6875 17.3438 4 16.5312 4ZM16.5312 18.5H7.53125V5.5H16.5312V18.5ZM12.0312 11.5C10.375 11.5 9.03125 12.875 9.03125 14.5C9.03125 16.1562 10.375 17.5 12.0312 17.5C13.6562 17.5 15.0312 16.1562 15.0312 14.5C15.0312 12.875 13.6562 11.5 12.0312 11.5ZM12.0312 15.5C11.4688 15.5 11.0312 15.0625 11.0312 14.5C11.0312 13.9688 11.4688 13.5 12.0312 13.5C12.5625 13.5 13.0312 13.9688 13.0312 14.5C13.0312 15.0625 12.5625 15.5 12.0312 15.5Z" fill="white"/>
</svg>
