<svg width="24" height="24" viewBox="0 0 24 24" fill="none" xmlns="http://www.w3.org/2000/svg">
<path d="M17.5 5H6.5C5.65625 5 5 5.6875 5 6.5V17.5C5 18.3438 5.65625 19 6.5 19H17.5C18.3125 19 19 18.3438 19 17.5V6.5C19 5.6875 18.3125 5 17.5 5ZM17.5 17.5H6.5V6.5H17.5V17.5ZM16.375 9.96875C16.5 9.8125 16.5 9.59375 16.375 9.4375L15.6562 8.71875C15.5312 8.5625 15.2812 8.5625 15.125 8.71875L10.7188 13.0938L8.84375 11.2188C8.6875 11.0625 8.46875 11.0625 8.3125 11.2188L7.59375 11.9062C7.46875 12.0625 7.46875 12.3125 7.59375 12.4375L10.4375 15.3125C10.5938 15.4688 10.8125 15.4688 10.9688 15.3125L16.375 9.96875Z" fill="#333333"/>
</svg>
