<svg width="24" height="24" viewBox="0 0 24 24" fill="none" xmlns="http://www.w3.org/2000/svg">
<path d="M9.875 17.9062C9.375 18.2812 8.6875 18.5 8 18.5C7.28125 18.5 6.59375 18.2812 6.09375 17.9062C5.875 17.6875 5.5 17.3125 5.5 16.7188C5.5 16.4375 5.59375 16.1562 5.8125 15.875C6.53125 15 6.6875 13.75 6.15625 12.7188C5.75 11.9375 6.6875 11.375 6.6875 11.375C6.84375 11.2812 7.03125 11.2188 7.25 11.1875V13.75C7.25 14.1875 7.5625 14.5 8 14.5C8.40625 14.5 8.75 14.1875 8.75 13.75V11.1875C8.9375 11.2188 9.125 11.2812 9.28125 11.375C9.78125 11.6875 10.0938 12.1875 9.8125 12.7188C9.28125 13.75 9.4375 15 10.1562 15.875C10.2188 15.9375 10.25 16.0312 10.2812 16.0938L11 14.125C11 14.0938 11 14.0625 11 14.0312C11 13.8438 11.0625 13.5625 11.1562 13.4062V13.375C11.1562 13.25 11.0938 13.0625 11.0625 12.9375C10.875 12.5625 10.75 11.9375 10.75 11.5312V10.6562C10.7188 10.625 10.6875 10.5938 10.6562 10.5625C10.5 10.4062 10.25 10.2188 10.0625 10.0938C9.65625 9.84375 9.1875 9.71875 8.71875 9.65625V7.96875L9.25 6.9375C9.3125 6.84375 9.34375 6.65625 9.34375 6.53125V4.84375C9.34375 4.375 8.96875 4.03125 8.53125 4H7.4375C7 4 6.625 4.375 6.625 4.84375V6.53125C6.625 6.65625 6.65625 6.84375 6.71875 6.9375L7.25 7.96875V9.65625C6.78125 9.71875 6.3125 9.84375 5.90625 10.0938C5.71875 10.2188 5.46875 10.4062 5.3125 10.5625C4.84375 11.0312 4.5625 11.6562 4.5625 12.3438C4.5625 12.6562 4.6875 13.125 4.8125 13.4062C5.0625 13.875 5 14.5 4.65625 14.9375C4.25 15.4375 3.96875 16.0625 4 16.7188C3.96875 18.5312 5.78125 20 8 20C8 20.0312 8 20.0312 8 20.0312C8.75 20.0312 9.84375 19.6875 10.4688 19.2812C10.25 18.9062 10.0312 18.2188 10 17.75C9.96875 17.8125 9.90625 17.8438 9.875 17.9062ZM16.5 16H14.5C14.2188 16 14 16.25 14 16.5V17C14 17.2812 14.2188 17.5 14.5 17.5H16.5C16.75 17.5 17 17.2812 17 17V16.5C17 16.25 16.75 16 16.5 16ZM19.7812 16.5312L18.9375 14.25C18.875 14.0312 18.8125 13.6875 18.8125 13.4688C18.8125 13.1875 18.9062 12.75 19.0312 12.5C19.125 12.25 19.25 11.8125 19.25 11.5312V10.6562C19.25 10.3438 18.9688 10.0625 18.6562 10.0625C18.4688 10.0625 18.25 10.2188 18.1562 10.375L17.8125 11.0312C17.6562 11.3438 17.3438 11.5625 17 11.625H16.25V6.3125C16.2812 6.28125 16.3438 6.21875 16.4062 6.1875C16.5938 5.96875 16.7812 5.59375 16.7812 5.28125C16.7812 4.59375 16.1875 4 15.5 4C15.2812 4 14.9688 4.125 14.7812 4.21875C14.2812 4.5625 14.3438 4.65625 13.7812 7.25C13.7812 7.28125 13.7812 7.375 13.7812 7.40625C13.7812 7.625 13.875 7.875 14.0312 8.03125L14.75 8.71875V11.5938H14C13.625 11.5 13.3438 11.25 13.2188 10.9062L12.8125 9.78125C12.7188 9.59375 12.5 9.40625 12.2812 9.40625C11.9688 9.40625 11.75 9.65625 11.75 9.96875V11.5312C11.75 11.8125 11.8438 12.25 11.9688 12.5C12.0625 12.75 12.1875 13.1875 12.1875 13.4688C12.1875 13.6875 12.125 14.0312 12.0312 14.25L11.1875 16.5312C10.5 18.1875 11.6875 20 13.4688 20H17.5C19.2812 20 20.5 18.1875 19.7812 16.5312ZM17.5 18.5H13.4688C12.5625 18.5 12.375 17.5938 12.5625 17.125C12.5938 17.125 12.4688 17.4062 13.4375 14.75C13.5625 14.4062 13.6562 13.8125 13.6562 13.4375C13.6562 13.3125 13.6562 13.125 13.6562 13C13.625 12.9062 17.2812 13.0312 17.3125 13C17.25 13.5938 17.3438 14.2188 17.5312 14.75C18.5 17.4062 18.4062 17.0938 18.4062 17.125C18.75 17.9688 18 18.5 17.5 18.5Z" fill="black"/>
</svg>
